{"title":"Bullet Raja (2013) 1CD Non Retail DvDRip XviD MP3 [Team ExDR]","uid":9288621,"size":730426579,"categoryP":"video","categoryS":"hd___movies","magnet":"?xt=urn:btih:27b10f25652ce49156c0f4eb111ca048fe72f1b7&amp;dn=Bullet+Raja+%282013%29+1CD+Non+Retail+DvDRip+XviD+MP3+%5BTeam+ExDR%5D&amp;tr=udp%3A%2F%2Ftracker.openbittorrent.com%3A80&amp;tr=udp%3A%2F%2Fopen.demonii.com%3A1337&amp;tr=udp%3A%2F%2Ftracker.coppersurfer.tk%3A6969&amp;tr=udp%3A%2F%2Fexodus.desync.com%3A6969","seeders":1,"leechers":0,"uploader":"manudil","files":5,"time":1386056859,"description":"General\nComplete name : Bullet Raja (2013) 1CD Non Retail DVDRip XviD MP3 [Team ExDR]\nFormat : AVI\nFormat/Info : Audio Video Interleave\nFile size : 693 MiB\nDuration : 2h 15mn\nOverall bit rate : 716 Kbps\n\nVideo\nID : 0\nFormat : MPEG-4 Visual\nFormat profile : Advanced Simple@L5\nFormat settings, BVOP : 2\nFormat settings, QPel : No\nFormat settings, GMC : No warppoints\nFormat settings, Matrix : Default (H.263)\nCodec ID : XVID\nCodec ID/Hint : XviD\nDuration : 2h 15mn\nBit rate : 662 Kbps\nWidth : 640 pixels\nHeight : 272 pixels\nDisplay aspect ratio : 2.35:1\nFrame rate : 25.000 fps\nColor space : YUV\nChroma subsampling : 4:2:0\nBit depth : 8 bits\nScan type : Progressive\nCompression mode : Lossy\nBits/(Pixel*Frame) : 0.152\nStream size : 640 MiB (92%)\nWriting library : XviD 1.2.1 (UTC 2008-12-04)\n\nAudio\nID : 1\nFormat : MPEG Audio\nFormat version : Version 2\nFormat profile : Layer 3\nMode : Joint stereo\nMode extension : MS Stereo\nCodec ID : 55\nCodec ID/Hint : MP3\nDuration : 2h 15mn\nBit rate mode : Constant\nBit rate : 48.0 Kbps\nChannel count : 2 channels\nSampling rate : 22.05 KHz\nCompression mode : Lossy\nStream size : 46.5 MiB (7%)\nAlignment : Aligned on interleaves\nInterleave, duration : 160 ms (4.00 video frames)\nInterleave, preload duration : 209 ms\nTitle : Team ExDR\nWriting library : LAME3.99.5\n &lt;a href=&quot;\nhttp://img716.imageshack.us/img716/8455/k7jj.png&quot; rel=&quot;nofollow&quot; target=&quot;_NEW&quot;&gt;\nhttp://img716.imageshack.us/img716/8455/k7jj.png&lt;/a&gt; &lt;a href=&quot;\nhttp://img196.imageshack.us/img196/663/tmwo.png&quot; rel=&quot;nofollow&quot; target=&quot;_NEW&quot;&gt;\nhttp://img196.imageshack.us/img196/663/tmwo.png&lt;/a&gt; &lt;a href=&quot;\nhttp://img59.imageshack.us/img59/7016/e5qe.png&quot; rel=&quot;nofollow&quot; target=&quot;_NEW&quot;&gt;\nhttp://img59.imageshack.us/img59/7016/e5qe.png&lt;/a&gt; &lt;a href=&quot;\nhttp://img850.imageshack.us/img850/8330/wv5k.png&quot; rel=&quot;nofollow&quot; target=&quot;_NEW&quot;&gt;\nhttp://img850.imageshack.us/img850/8330/wv5k.png&lt;/a&gt; &lt;a href=&quot;\nhttp://img577.imageshack.us/img577/92/vtfs.png&quot; rel=&quot;nofollow&quot; target=&quot;_NEW&quot;&gt;\nhttp://img577.imageshack.us/img577/92/vtfs.png&lt;/a&gt; &lt;a href=&quot;\nhttp://img96.imageshack.us/img96/1213/26ty.png&quot; rel=&quot;nofollow&quot; target=&quot;_NEW&quot;&gt;\nhttp://img96.imageshack.us/img96/1213/26ty.png&lt;/a&gt; &lt;a href=&quot;\nhttp://img42.imageshack.us/img42/9564/c9nb.png&quot; rel=&quot;nofollow&quot; target=&quot;_NEW&quot;&gt;\nhttp://img42.imageshack.us/img42/9564/c9nb.png&lt;/a&gt;","torrent":{"xt":"urn:btih:27b10f25652ce49156c0f4eb111ca048fe72f1b7","amp;dn":"Bullet+Raja+%282013%29+1CD+Non+Retail+DvDRip+XviD+MP3+%5BTeam+ExDR%5D","amp;tr":["udp%3A%2F%2Ftracker.openbittorrent.com%3A80","udp%3A%2F%2Fopen.demonii.com%3A1337","udp%3A%2F%2Ftracker.coppersurfer.tk%3A6969","udp%3A%2F%2Fexodus.desync.com%3A6969"],"infoHash":"27b10f25652ce49156c0f4eb111ca048fe72f1b7","infoHashBuffer":{"type":"Buffer","data":[39,177,15,37,101,44,228,145,86,192,244,235,17,28,160,72,254,114,241,183]},"announce":[],"urlList":[]}}